<?xml version="1.0" encoding="UTF-8"?>
<svg xmlns="http://www.w3.org/2000/svg" width="512" height="512" viewBox="0 0 512 512" role="img" aria-labelledby="title desc">
  <title id="title">rs70archive icon</title>
  <desc id="desc">Rounded tile with rs monogram</desc>
  <defs>
    <linearGradient id="tile" x1="0" y1="0" x2="1" y2="1">
      <stop offset="0" stop-color="#fff7ea"/>
      <stop offset="1" stop-color="#f0e3cf"/>
    </linearGradient>
  </defs>
  <rect x="24" y="24" width="464" height="464" rx="96" fill="url(#tile)" stroke="#c66a3d" stroke-width="18"/>
  <path d="M84.80-88.08L84.80-88.08Q84.80-82.85 82.24-78.80Q79.67-74.75 74.34-74.75L74.34-74.75Q68.60-74.75 65.57-77.72Q62.55-80.70 62.55-84.29L62.55-84.29Q62.55-86.54 62.91-88.39Q63.27-90.23 63.57-92.08L63.57-92.08Q58.75-92.08 52.29-88.18Q45.83-84.29 41.32-77.11L41.32-77.11L41.32-18.25Q41.32-14.66 42.71-12.41Q44.09-10.15 47.07-9.02L47.07-9.02Q49.63-8.00 53.68-7.49Q57.73-6.97 60.70-6.77L60.70-6.77L60.70 0L7.38 0L7.38-6.77Q9.74-6.97 12.25-7.18Q14.77-7.38 16.61-8.00L16.61-8.00Q19.48-8.92 20.87-11.23Q22.25-13.54 22.25-17.23L22.25-17.23L22.25-79.67Q22.25-82.85 20.76-85.93Q19.28-89.00 16.61-90.85L16.61-90.85Q14.66-92.08 12.00-92.64Q9.33-93.21 6.25-93.41L6.25-93.41L6.25-100.08L39.89-102.33L41.32-100.90L41.32-86.65L41.84-86.65Q48.19-94.95 55.99-99.26Q63.78-103.56 70.24-103.56L70.24-103.56Q76.70-103.56 80.75-99.36Q84.80-95.16 84.80-88.08ZM160.17-49.53L160.17-49.53Q164.37-45.83 166.63-41.02Q168.88-36.20 168.88-29.22L168.88-29.22Q168.88-15.18 158.37-6.25Q147.86 2.67 131.15 2.67L131.15 2.67Q122.33 2.67 114.90-0.51Q107.46-3.69 104.28-6.36L104.28-6.36L102.23 0.31L94.54 0.31L93.52-34.86L100.59-34.86Q101.41-30.86 104.08-25.53Q106.74-20.20 110.54-15.89L110.54-15.89Q114.54-11.38 120.12-8.31Q125.71-5.23 132.69-5.23L132.69-5.23Q142.53-5.23 147.86-9.69Q153.19-14.15 153.19-22.46L153.19-22.46Q153.19-26.76 151.50-29.89Q149.81-33.02 146.53-35.38L146.53-35.38Q143.14-37.73 138.22-39.63Q133.30-41.53 127.25-43.37L127.25-43.37Q122.43-44.81 116.54-47.32Q110.64-49.83 106.44-53.22L106.44-53.22Q101.92-56.81 99.05-62.04Q96.18-67.27 96.18-74.34L96.18-74.34Q96.18-86.75 105.41-95.36Q114.64-103.97 130.12-103.97L130.12-103.97Q136.07-103.97 142.27-102.44Q148.48-100.90 152.37-98.75L152.37-98.75L154.73-104.08L162.11-104.08L163.65-71.57L156.58-71.57Q154.42-82.44 147.30-89.26Q140.17-96.08 129.92-96.08L129.92-96.08Q121.51-96.08 116.69-91.88Q111.87-87.67 111.87-81.72L111.87-81.72Q111.87-77.11 113.46-74.03Q115.05-70.96 118.23-68.80L118.23-68.80Q121.30-66.75 125.97-64.96Q130.63-63.16 137.50-60.91L137.50-60.91Q144.27-58.75 150.27-55.88Q156.27-53.01 160.17-49.53Z" fill="#2a2118" transform="translate(168.43 306.71)"/>
  <circle cx="367.31" cy="232.63" r="20" fill="#c66a3d"/>
</svg>
